<svg width="32" height="32" viewBox="0 0 24 24" xmlns="http://www.w3.org/2000/svg" class="Card__icon--oD5pH" style="color: rgb(23, 147, 209);"><path d="M12 2c-.9 2.18-1.43 3.61-2.42 5.73a15.62 15.62 0 0 0 2.56 2.24A10.65 10.65 0 0 1 9.3 8.34 271 271 0 0 1 2 22c3.17-1.83 5.63-2.96 7.92-3.39a5.8 5.8 0 0 1-.15-1.36v-.1c.05-2.03 1.1-3.59 2.36-3.48 1.25.1 2.22 1.84 2.17 3.87a5.79 5.79 0 0 1-.12 1.09c2.26.44 4.7 1.57 7.82 3.37l-1.7-3.13c-.82-.64-1.68-1.48-3.45-2.38 1.21.31 2.08.67 2.76 1.08C14.26 7.62 13.83 6.3 12 2Z" fill="currentColor" style="stroke-width: 0.120346;"></path></svg>