<svg width="32" height="32" viewBox="0 0 24 24" fill="none" xmlns="http://www.w3.org/2000/svg" class="Card__icon--oD5pH" style="color: rgb(209, 11, 80);"><path d="M19.39 4.74a7.28 7.28 0 0 0-2.7-1.96 10.2 10.2 0 0 0-1.6-.5h-.03l-.82-.17a9.84 9.84 0 0 0-.6-.06l-.25-.04c-2.24-.11-4.45.48-6.27 1.69a9.74 9.74 0 0 0-2.2 2.04 9 9 0 0 0-1.33 2.44 10.43 10.43 0 0 0 .85 8.74 11.12 11.12 0 0 0 4.43 4.2l.14.08.34.16.38.18.24.1.44.17.54.16a.56.56 0 0 0 .49-.08.48.48 0 0 0 .18-.26.45.45 0 0 0-.03-.3.5.5 0 0 0-.23-.24l-.5-.23-.3-.17-.24-.15-.36-.22a2.18 2.18 0 0 1-.2-.14l-.16-.1a9.86 9.86 0 0 1-2.9-3.23 9 9 0 0 1-1.15-4.06 8.82 8.82 0 0 1 .69-3.74c.26-.6.6-1.17 1.04-1.68A7.26 7.26 0 0 1 8.88 6a7.39 7.39 0 0 1 4.28-1.07l.27.03.31.02.6.1h.02c.35.09.7.2 1.04.33a4.45 4.45 0 0 1 2.55 2.69 4.01 4.01 0 0 1 .17 1.77l-.04.2c0 .09-.03.17-.05.24l-.05.2a3.76 3.76 0 0 1-.08.24 3.12 3.12 0 0 1-.39.71 3.36 3.36 0 0 1-1.2 1 3.76 3.76 0 0 1-1.52.37 3.48 3.48 0 0 1-1.4-.25 2.33 2.33 0 0 1-.92-.74 2.2 2.2 0 0 1-.4-.95 2.13 2.13 0 0 1 .08-1.02 1.61 1.61 0 0 1 .42-.66c.28-.27.65-.45 1.05-.51a1.81 1.81 0 0 1 .33-.03h.14c.13 0 .26-.04.36-.12a.46.46 0 0 0 .17-.3.45.45 0 0 0-.1-.34.53.53 0 0 0-.33-.18l-.13-.02a4.24 4.24 0 0 0-.54-.04 3.23 3.23 0 0 0-1.88.61 3.04 3.04 0 0 0-.92 1.1 3.66 3.66 0 0 0-.39 1.53 3.76 3.76 0 0 0 .47 1.79 4 4 0 0 0 1.56 1.55c.72.4 1.53.63 2.36.68.95.06 1.9-.1 2.75-.46a5.67 5.67 0 0 0 2.19-1.6c.31-.38.57-.79.78-1.23a5.15 5.15 0 0 0 .17-.44l.07-.2a4.68 4.68 0 0 0 .13-.47l.05-.21a6.32 6.32 0 0 0-.07-2.94 6.65 6.65 0 0 0-1.4-2.64Z" fill="currentColor"></path></svg>