<svg width="32" height="32" viewBox="0 0 24 24" fill="none" xmlns="http://www.w3.org/2000/svg" class="Card__icon--oD5pH" style="color: rgb(11, 175, 234);"><path d="m9.44 5.32-5 .64a.5.5 0 0 0-.32.16.46.46 0 0 0-.12.32v4.29a.47.47 0 0 0 .15.34c.1.09.22.14.35.14h5c.14 0 .26-.05.36-.14a.47.47 0 0 0 .14-.34V5.8a.46.46 0 0 0-.17-.36.5.5 0 0 0-.4-.11Zm10.4-1.2a.51.51 0 0 0-.4-.11l-7.34.95a.5.5 0 0 0-.3.16.46.46 0 0 0-.13.3v5.3c0 .14.05.26.15.35.1.09.22.14.35.14h7.33c.14 0 .26-.05.36-.14a.47.47 0 0 0 .14-.34V4.47a.47.47 0 0 0-.17-.36Zm-.34 8.68h-7.33a.5.5 0 0 0-.35.14.47.47 0 0 0-.15.33v5.3c0 .12.04.23.12.32a.5.5 0 0 0 .31.16l7.34.95h.06a.52.52 0 0 0 .36-.14.47.47 0 0 0 .14-.34v-6.25a.47.47 0 0 0-.14-.34.51.51 0 0 0-.36-.14Zm-10 0h-5a.51.51 0 0 0-.35.14.47.47 0 0 0-.15.33v4.3a.46.46 0 0 0 .13.3.5.5 0 0 0 .3.16l5 .64h.07a.52.52 0 0 0 .36-.14.47.47 0 0 0 .14-.33v-4.93a.47.47 0 0 0-.14-.33.51.51 0 0 0-.36-.14Z" fill="currentColor"></path></svg>