<svg width="32" height="32" viewBox="0 0 24 24" xmlns="http://www.w3.org/2000/svg" class="Card__icon--oD5pH" style="color: rgb(197, 13, 48);"><path fill-rule="evenodd" clip-rule="evenodd" d="M12 2c-.74 0-1.47.08-2.17.24V12c0 1.2.98 2.17 2.18 2.17A2.18 2.18 0 0 0 14.18 12a2.18 2.18 0 0 0-2.03-2.17V8.1a3.92 3.92 0 0 1 3.77 3.9A3.92 3.92 0 0 1 12 15.93a3.92 3.92 0 0 1-3.92-3.91V2.79a9.48 9.48 0 0 0-.72.35V12A4.64 4.64 0 0 0 12 16.64a4.64 4.64 0 0 0 4.63-4.63 4.64 4.64 0 0 0-4.49-4.64V5.63A6.39 6.39 0 1 1 5.63 12V4.3A9.98 9.98 0 0 0 2 11.99 10 10 0 1 0 12 2Z" fill="currentColor"></path></svg>