<svg width="32" height="32" viewBox="0 0 24 24" fill="none" xmlns="http://www.w3.org/2000/svg" class="Card__icon--oD5pH" style="color: rgb(233, 83, 31);"><path d="M10.89 7.55a.71.71 0 0 0 .34.28c.14.06.3.07.45.04a4.6 4.6 0 0 1 1.06-.13 4.66 4.66 0 0 1 2.68.86 4.3 4.3 0 0 1 1.62 2.22.69.69 0 0 0 .26.35c.12.1.27.14.43.14h2.56a.76.76 0 0 0 .3-.07.72.72 0 0 0 .25-.18.66.66 0 0 0 .15-.56 7.84 7.84 0 0 0-1.77-3.58.73.73 0 0 0-.33-.21.76.76 0 0 0-.4-.02 3.36 3.36 0 0 1-2.37-.3 3.09 3.09 0 0 1-1.49-1.8.69.69 0 0 0-.21-.31.74.74 0 0 0-.36-.16 8.46 8.46 0 0 0-4.07.34.73.73 0 0 0-.26.16.66.66 0 0 0-.13.82l1.29 2.1Zm9.4 5.17h-2.56a.75.75 0 0 0-.43.13.69.69 0 0 0-.26.35 4.3 4.3 0 0 1-1.61 2.22 4.66 4.66 0 0 1-2.7.86 4.79 4.79 0 0 1-1.05-.13.76.76 0 0 0-.45.04.71.71 0 0 0-.34.28L9.6 18.6a.67.67 0 0 0-.04.57.69.69 0 0 0 .16.25.73.73 0 0 0 .27.16 8.78 8.78 0 0 0 4.07.34.74.74 0 0 0 .36-.16.69.69 0 0 0 .21-.31 3.1 3.1 0 0 1 1.17-1.58 3.36 3.36 0 0 1 2.7-.52c.13.03.27.03.4-.01a.73.73 0 0 0 .32-.21 7.84 7.84 0 0 0 1.78-3.6.66.66 0 0 0-.16-.55.72.72 0 0 0-.24-.19.75.75 0 0 0-.3-.06v-.01ZM9.5 14.96a4.15 4.15 0 0 1-1.24-2.95c0-1.1.44-2.15 1.24-2.94a.66.66 0 0 0 .1-.82l-1.28-2.1a.7.7 0 0 0-.2-.21.74.74 0 0 0-.6-.1.74.74 0 0 0-.28.14 8.05 8.05 0 0 0-2.33 3.15.66.66 0 0 0 .15.73A3 3 0 0 1 6 12.02a3 3 0 0 1-.93 2.16.66.66 0 0 0-.16.73 8.02 8.02 0 0 0 2.33 3.15c.13.1.3.16.47.17a.8.8 0 0 0 .12 0 .74.74 0 0 0 .3-.12.7.7 0 0 0 .2-.23l1.28-2.1a.66.66 0 0 0-.1-.82Zm-6.74-4.62c-.35 0-.69.1-.98.29a1.69 1.69 0 0 0-.64.75 1.6 1.6 0 0 0-.1.96c.07.33.24.62.49.86a1.79 1.79 0 0 0 1.91.35 1.74 1.74 0 0 0 .78-.62 1.62 1.62 0 0 0 .3-.93 1.63 1.63 0 0 0-.53-1.17 1.8 1.8 0 0 0-1.23-.49ZM17.64 22c1 0 1.83-.78 1.83-1.74s-.82-1.74-1.83-1.74c-1.01 0-1.83.78-1.83 1.74S16.63 22 17.64 22Zm0-16.52c1 0 1.83-.78 1.83-1.74S18.65 2 17.64 2c-1.01 0-1.83.78-1.83 1.74s.82 1.74 1.83 1.74Z" fill="currentColor"></path></svg>